<?xml version="1.0" standalone="no"?>
<!DOCTYPE svg PUBLIC "-//W3C//DTD SVG 20010904//EN"
 "http://www.w3.org/TR/2001/REC-SVG-20010904/DTD/svg10.dtd">
<svg version="1.0" xmlns="http://www.w3.org/2000/svg"
 width="419.000000pt" height="419.000000pt" viewBox="0 0 419.000000 419.000000"
 preserveAspectRatio="xMidYMid meet">

<g transform="translate(0.000000,419.000000) scale(0.100000,-0.100000)"
fill="#000000" stroke="none">
<path d="M421 4179 c-136 -26 -289 -142 -355 -268 -71 -135 -66 -10 -66 -1807
0 -961 4 -1641 9 -1670 34 -181 161 -332 336 -401 l70 -28 1644 -3 c990 -1
1665 1 1695 7 234 43 415 243 433 477 l6 72 -39 12 c-125 41 -311 145 -450
251 l-92 69 -675 0 c-658 0 -677 1 -687 19 -12 24 -12 32 0 51 8 13 93 16 635
20 l625 5 -56 63 -56 62 -568 0 c-553 0 -570 1 -580 19 -14 27 -13 37 6 55 14
14 77 16 544 16 l529 0 -42 65 -42 64 -492 1 c-476 0 -493 1 -503 19 -14 27
-13 37 6 55 14 14 71 16 475 16 252 0 459 2 459 5 0 3 -14 32 -30 65 l-30 60
-435 0 c-419 0 -435 1 -445 19 -14 27 -13 37 6 55 13 14 66 16 425 16 225 0
409 1 409 3 0 1 -9 29 -19 62 l-19 60 -393 3 c-356 2 -395 4 -406 19 -17 22
-16 38 3 57 13 14 63 16 394 16 l378 0 -9 43 c-5 23 -11 52 -14 65 l-5 22
-370 0 c-355 0 -370 1 -380 19 -14 27 -13 37 6 55 13 14 62 16 376 16 l361 0
-7 46 c-3 26 -6 55 -6 65 0 18 -16 19 -360 19 -345 0 -360 1 -370 19 -14 27
-13 37 6 55 13 14 61 16 370 16 l354 0 0 43 c0 23 3 52 6 65 l6 22 -365 0
c-352 0 -367 1 -377 19 -14 27 -13 37 6 55 13 14 62 16 380 16 l364 0 0 23 c0
20 39 196 56 255 l6 22 -1265 0 -1266 0 -26 23 c-39 33 -45 94 -12 133 l25 29
1309 3 1308 3 48 95 c26 53 45 100 41 105 -3 5 -15 9 -27 9 -31 0 -118 43
-144 71 -29 31 -53 90 -53 129 l0 30 70 0 c59 0 72 -3 76 -17 18 -58 68 -93
133 -92 44 0 48 3 89 55 36 46 41 58 31 70 -20 24 -61 42 -150 64 -105 26
-176 64 -207 110 -21 30 -23 44 -20 107 3 62 7 77 34 110 17 21 56 51 89 68
52 26 69 29 146 29 77 0 94 -3 145 -29 66 -34 111 -89 121 -148 l6 -37 -74 0
c-74 0 -75 0 -86 30 -20 53 -107 75 -178 46 -43 -19 -63 -56 -47 -90 16 -36
46 -51 157 -80 55 -15 117 -38 137 -51 21 -14 41 -25 46 -25 4 0 28 21 52 46
48 49 192 160 275 211 28 17 94 53 148 79 53 27 97 54 97 60 0 22 -127 132
-188 163 -129 65 -14 61 -1807 60 -896 -1 -1650 -5 -1674 -10z m509 -455 c85
-124 158 -228 162 -230 4 -3 8 99 8 225 l0 231 75 0 75 0 0 -365 0 -365 -67 0
-68 1 -155 226 -155 226 -3 -227 -2 -226 -80 0 -80 0 0 365 0 365 68 0 68 0
154 -226z m940 161 l0 -65 -170 0 -170 0 0 -85 0 -85 155 0 155 0 0 -65 0 -65
-155 0 -155 0 0 -85 0 -85 170 0 170 0 0 -65 0 -65 -245 0 -245 0 0 365 0 365
245 0 245 0 0 -65z m304 -193 c33 -139 63 -247 66 -240 4 7 35 122 70 256 l63
242 72 0 71 0 64 -247 c35 -137 66 -251 69 -255 4 -4 33 106 66 245 l60 252
83 3 c45 2 82 -1 82 -5 0 -4 -46 -168 -102 -365 l-102 -358 -76 0 -75 0 -64
223 c-35 122 -67 229 -71 237 -6 10 -14 -4 -26 -45 -9 -33 -40 -139 -68 -235
l-51 -175 -75 -3 -75 -3 -103 358 c-57 197 -103 362 -102 366 0 4 37 7 82 5
l82 -3 60 -253z m-283 -1104 c55 -16 118 -73 145 -132 l24 -51 0 -621 c0 -690
1 -679 -66 -748 -73 -75 -31 -71 -694 -74 -423 -2 -607 0 -635 8 -68 19 -112
57 -145 123 l-30 60 0 620 c0 441 3 631 12 658 16 55 73 118 132 145 l51 24
584 0 c414 0 595 -3 622 -12z m1813 -1844 c19 -18 21 -45 4 -62 -9 -9 -369
-12 -1560 -12 -1520 0 -1547 0 -1558 19 -14 27 -13 37 6 55 14 14 169 16 1554
16 1385 0 1540 -2 1554 -16z m0 -220 c19 -18 21 -45 4 -62 -9 -9 -369 -12
-1560 -12 -1520 0 -1547 0 -1558 19 -14 27 -13 37 6 55 14 14 169 16 1554 16
1385 0 1540 -2 1554 -16z"/>
<path d="M658 2489 c-23 -12 -46 -35 -58 -59 -19 -38 -20 -58 -20 -651 0 -675
-2 -655 64 -702 l31 -22 600 0 600 0 31 22 c66 47 64 26 64 705 0 691 3 660
-76 705 l-39 23 -580 -1 c-558 0 -581 -1 -617 -20z"/>
</g>
</svg>
